<?xml version="1.0" encoding="iso-8859-1"?>
<!-- Generator: Adobe Illustrator 19.0.0, SVG Export Plug-In . SVG Version: 6.00 Build 0)  -->
<svg xmlns="http://www.w3.org/2000/svg" xmlns:xlink="http://www.w3.org/1999/xlink" version="1.1" id="Capa_1" x="0px" y="0px" viewBox="0 0 470 470" style="enable-background:new 0 0 470 470;" xml:space="preserve" width="512" height="512">
<g>
	
		<rect x="-19.028" y="102.329" transform="matrix(-0.7071 -0.7071 0.7071 -0.7071 118.0614 293.5608)" style="fill:#FFCFB2;" width="277.715" height="40"/>
	
		<rect x="211.314" y="102.329" transform="matrix(0.7071 -0.7071 0.7071 0.7071 16.063 283.4377)" style="fill:#FFCFB2;" width="277.715" height="40"/>
	<path style="fill:#99D9FF;" d="M285.55,432.5l-50,10c-0.01,0,9.99-54.38,9.99-54.38h30C275.54,388.12,285.54,432.5,285.55,432.5z"/>
	<path style="fill:#CCECFF;" d="M255.55,432.5l-35.545,20l-35.545-20l10-44.38l25.545-20l25.535,20   C245.54,388.12,255.54,432.5,255.55,432.5z"/>
	<path style="fill:#CCECFF;" d="M320,432.5h-30l30,30h30C350,445.93,336.57,432.5,320,432.5z"/>
	<path style="fill:#EDF8FF;" d="M290,432.5H150c-16.57,0-30,13.43-30,30h200C320,445.93,306.57,432.5,290,432.5z"/>
	<path style="fill:#CCECFF;" d="M235,236.17h165c0,75.15-53.48,137.77-124.45,151.95H235l-40-75.975L235,236.17z"/>
	<path style="fill:#EDF8FF;" d="M235,236.17v151.95h-41.24C123.13,373.67,70,311.08,70,236.17H235z"/>
	<path style="fill:#FDFA7B;" d="M340,236.17l-75.9,121.95h8.32c56.71-12.66,97.58-63.5,97.58-121.95H340z"/>
	<path style="fill:#FEFDCA;" d="M100,236.17l135-30l105,30c0,58.45-31.79,109.29-75.9,121.95h-67.13   C140.61,345.22,100,294.39,100,236.17z"/>
	<path style="fill:#84B044;" d="M235,67.5v170c46.94,0,85-38.06,85-85S281.94,67.5,235,67.5z"/>
	<path style="fill:#A2C352;" d="M235,67.5c30.38,0,55,38.06,55,85s-24.62,85-55,85c-46.94,0-85-38.06-85-85S188.06,67.5,235,67.5z"/>
	<path style="fill:#C1D560;" d="M305,151.173l55,85h30C390,189.233,351.94,151.173,305,151.173z"/>
	<path style="fill:#FDFA7B;" d="M305,151.173c-46.94,0-85,38.06-85,85h140C360,189.233,335.38,151.173,305,151.173z"/>
	<path style="fill:#975D50;" d="M250,236.17v60c0,8.29-6.72,15-15,15s-15-6.71-15-15v-60l-55-85   C211.94,151.17,250,189.23,250,236.17z"/>
	<path style="fill:#B1786B;" d="M220,236.17h-30v30c0,8.29-6.72,15-15,15s-15-6.71-15-15v-30H80c0-46.94,38.06-85,85-85   C195.38,151.17,220,189.23,220,236.17z"/>
	<circle style="fill:#EF431D;" cx="235" cy="37.5" r="30"/>
	<path d="M368.143,258.896c-4.018-1.005-8.088,1.451-9.087,5.47c-10.595,42.648-44.884,76.424-87.481,86.26h-73.747   c-42.28-10.007-76.333-43.779-86.883-86.258c-0.998-4.021-5.064-6.468-9.087-5.472c-4.02,0.999-6.469,5.067-5.471,9.087   c5.858,23.585,18.11,45.155,35.432,62.377c17.563,17.462,39.512,29.591,63.473,35.076c0.549,0.126,1.111,0.189,1.674,0.189h75.449   c0.55,0,1.098-0.061,1.635-0.181c24.127-5.39,46.228-17.471,63.91-34.937c17.442-17.229,29.771-38.85,35.652-62.525   C374.612,263.962,372.163,259.894,368.143,258.896z"/>
	<path d="M255.546,425h-41.09c-4.142,0-7.5,3.357-7.5,7.5s3.358,7.5,7.5,7.5h41.09c4.142,0,7.5-3.357,7.5-7.5   S259.688,425,255.546,425z"/>
	<path d="M467.803,32.981L439.519,4.696c-2.929-2.928-7.678-2.928-10.606,0l-94.654,94.654c-2.929,2.93-2.929,7.678,0,10.607   c2.929,2.928,7.678,2.928,10.606,0l89.351-89.352l17.678,17.678L339.732,150.446c-4.014-1.632-8.168-2.99-12.438-4.051   c-2.559-39.074-29.485-71.6-65.694-82.491C268.333,57.122,272.5,47.789,272.5,37.5C272.5,16.822,255.678,0,235,0   s-37.5,16.822-37.5,37.5c0,10.289,4.168,19.622,10.901,26.404c-36.209,10.891-63.135,43.417-65.694,82.491   c-4.27,1.061-8.422,2.42-12.436,4.053L18.107,38.284l17.678-17.678l89.352,89.353c2.929,2.928,7.678,2.928,10.606,0   c2.929-2.93,2.929-7.678,0-10.607L41.088,4.696c-2.929-2.928-7.678-2.928-10.606,0L2.197,32.981c-2.929,2.93-2.929,7.678,0,10.607   L116.229,157.62C92,172.718,75.218,198.694,72.801,228.673H70c-4.142,0-7.5,3.357-7.5,7.5c0,37.666,13.179,74.393,37.108,103.416   c22.127,26.836,52.406,45.95,85.852,54.336L178.457,425H150c-20.678,0-37.5,16.822-37.5,37.5c0,4.143,3.358,7.5,7.5,7.5h230   c4.142,0,7.5-3.357,7.5-7.5c0-20.678-16.822-37.5-37.5-37.5h-28.457c-1.81-8.033-5.064-22.472-7.033-31.209   c71.712-17.909,122.99-82.996,122.99-157.618c0-4.143-3.358-7.5-7.5-7.5h-2.805c-2.417-29.978-19.189-55.961-43.417-71.059   L467.803,43.588C470.733,40.658,470.733,35.91,467.803,32.981z M212.5,37.5c0-12.406,10.093-22.5,22.5-22.5s22.5,10.094,22.5,22.5   S247.407,60,235,60S212.5,49.906,212.5,37.5z M235,75c39.838,0,72.74,30.22,77.016,68.937c-2.316-0.175-4.656-0.264-7.016-0.264   c-27.045,0-52.557,11.842-70.037,32.089c-16.975-19.632-42.034-32.089-69.963-32.089c-2.364,0-4.7,0.115-7.02,0.29   C162.245,105.233,195.153,75,235,75z M165,158.673c42.734,0,77.5,34.767,77.5,77.5v60c0,4.136-3.364,7.5-7.5,7.5   s-7.5-3.364-7.5-7.5v-60c0-4.143-3.358-7.5-7.5-7.5h-30c-4.142,0-7.5,3.357-7.5,7.5v30c0,4.136-3.364,7.5-7.5,7.5   s-7.5-3.364-7.5-7.5v-30c0-4.143-3.358-7.5-7.5-7.5H87.86C91.645,189.445,124.797,158.673,165,158.673z M320,440   c9.778,0,18.12,6.27,21.215,15h-212.43c3.095-8.73,11.437-15,21.215-15h34.455c3.507,0,6.545-2.43,7.316-5.852l8.681-38.523h69.094   l8.57,38.026c1.362,6.043,6.427,6.349,7.429,6.349H320z M274.795,380.625h-80.192c-65.48-13.734-113.53-70.557-116.911-136.952   H152.5v22.5c0,12.406,10.093,22.5,22.5,22.5s22.5-10.094,22.5-22.5v-22.5h15v52.5c0,12.406,10.093,22.5,22.5,22.5   s22.5-10.094,22.5-22.5v-52.5h134.81C388.919,310.306,340.59,367.135,274.795,380.625z M382.131,228.673H257.199   c-1.185-14.705-5.832-28.446-13.112-40.417c14.658-18.609,37.079-29.583,60.914-29.583   C345.203,158.673,378.345,189.446,382.131,228.673z"/>
</g>















</svg>
