<?xml version="1.0" encoding="iso-8859-1"?>
<!-- Generator: Adobe Illustrator 19.0.0, SVG Export Plug-In . SVG Version: 6.00 Build 0)  -->
<svg version="1.1" id="Layer_1" xmlns="http://www.w3.org/2000/svg" xmlns:xlink="http://www.w3.org/1999/xlink" x="0px" y="0px"
	 viewBox="0 0 511.998 511.998" style="enable-background:new 0 0 511.998 511.998;" xml:space="preserve">
<path style="fill:#FFF5CA;" d="M403.763,253.32c1.386-3.644,2.149-7.592,2.149-11.721c0-18.244-14.801-33.033-33.06-33.033
	c-4.889,0-9.524,1.068-13.698,2.97c-0.363-17.929-15.012-32.355-33.045-32.355c-9.128,0-17.389,3.695-23.37,9.668
	c-5.984-5.973-14.246-9.668-23.372-9.668c-9.126,0-17.388,3.695-23.369,9.669c-5.983-5.974-14.246-9.669-23.372-9.669
	c-9.126,0-17.388,3.695-23.369,9.669c-5.983-5.974-14.245-9.669-23.369-9.669c-18.032,0-32.682,14.426-33.045,32.355
	c-4.176-1.903-8.811-2.97-13.697-2.97c-18.26,0-33.061,14.789-33.061,33.033c0,4.129,0.764,8.077,2.149,11.721
	c-14.625,3.411-25.521,16.508-25.521,32.16c0,18.244,14.802,33.033,33.062,33.033c9.127,0,17.389-3.694,23.371-9.668
	c5.982,5.974,14.245,9.668,23.369,9.668c9.127,0,17.389-3.694,23.372-9.668c5.982,5.974,14.245,9.668,23.369,9.668
	c9.127,0,17.389-3.694,23.371-9.668c5.983,5.974,14.244,9.668,23.371,9.668c9.126,0,17.389-3.694,23.371-9.667
	c5.983,5.973,14.246,9.667,23.372,9.667c9.126,0,17.389-3.694,23.371-9.668c5.983,5.974,14.246,9.668,23.371,9.668
	c9.126,0,17.389-3.694,23.369-9.668c5.984,5.974,14.245,9.668,23.372,9.668c18.259,0,33.061-14.789,33.061-33.033
	C429.285,269.827,418.387,256.73,403.763,253.32z"/>
<g style="opacity:0.1;">
	<path d="M105.363,315.953c-1.693,0-3.385-0.404-4.931-1.216c-10.931-5.738-17.721-16.95-17.721-29.259
		c0-15.431,10.495-28.655,25.52-32.16c-1.425-3.752-2.148-7.695-2.148-11.721c0-18.214,14.83-33.033,33.061-33.033
		c4.765,0,9.373,0.999,13.697,2.97c0.361-17.841,15.185-32.355,33.045-32.355c7.643,0,15.092,2.662,20.972,7.495
		c2.79,2.293,4.222,5.847,3.801,9.434c-0.42,3.586-2.635,6.712-5.879,8.298c-7.956,3.889-14.149,10.893-16.99,19.211
		c-1.48,4.336-5.549,7.183-10.036,7.184c-0.431,0-0.866-0.027-1.303-0.081c-1.342-0.164-2.719-0.248-4.091-0.248
		c-18.23,0-33.061,14.819-33.061,33.033c0,1.284,0.074,2.573,0.221,3.832c0.513,4.403-1.765,8.661-5.712,10.678
		c-10.468,5.347-17.306,16.004-17.845,27.811c-0.164,3.625-2.172,6.914-5.319,8.72C109.01,315.483,107.188,315.953,105.363,315.953z
		"/>
</g>
<path style="fill:#B0CE6F;" d="M282.165,146.071c13.847-5.716,29.938-3.517,41.986,5.745c3.218,2.47,4.919,6.416,4.481,10.399
	c-1.642,14.906-11.258,27.722-25.109,33.439c-13.844,5.72-29.937,3.519-41.988-5.744c-3.214-2.469-4.914-6.414-4.478-10.39
	C258.694,164.606,268.315,151.788,282.165,146.071z"/>
<path style="fill:#78B591;" d="M209.378,198.553c-14.069-5.602-24.028-18.269-25.987-33.056c-0.525-3.947,1.105-7.872,4.295-10.342
	c11.954-9.251,28.114-11.523,42.192-5.924c14.07,5.603,24.031,18.268,25.988,33.059c0.524,3.946-1.107,7.868-4.296,10.333
	C239.619,201.883,223.453,204.152,209.378,198.553z"/>
<path style="fill:#ACEBE9;" d="M255.997,498.076c-108.989,0-197.661-86.763-197.661-193.415c0-7.627,6.325-13.812,14.118-13.812
	H439.54c7.801,0,14.121,6.184,14.121,13.812C453.659,411.313,364.987,498.076,255.997,498.076z"/>
<path style="opacity:0.1;enable-background:new    ;" d="M102.616,304.661c0-7.627,6.325-13.812,14.118-13.812h-44.28
	c-7.793,0-14.118,6.184-14.118,13.812c0,106.652,88.672,193.415,197.661,193.415c7.485,0,14.87-0.423,22.14-1.219
	C179.532,486.051,102.616,403.989,102.616,304.661z"/>
<g>
	<path style="fill:#FFE060;" d="M181.672,110.777c-23.764,7.967-30.265,14.426-38.286,38.032
		c-8.02-23.606-14.522-30.065-38.286-38.032c23.765-7.968,30.266-14.426,38.286-38.034
		C151.408,96.35,157.908,102.809,181.672,110.777z"/>
	<path style="fill:#FFE060;" d="M280.992,31.017c-19.381,6.497-24.684,11.764-31.223,31.016
		c-6.543-19.253-11.846-24.519-31.226-31.016C237.924,24.52,243.227,19.253,249.77,0C256.308,19.253,261.612,24.52,280.992,31.017z"
		/>
	<path style="fill:#FFE060;" d="M396.039,111.491c-19.381,6.497-24.683,11.764-31.224,31.017
		c-6.541-19.253-11.842-24.52-31.224-31.017c19.382-6.497,24.683-11.765,31.224-31.017
		C371.356,99.726,376.659,104.993,396.039,111.491z"/>
</g>
<g>
	<path style="fill:#84C1BC;" d="M181.353,327.947H67.463c-3.104,0-5.784,1.78-7.097,4.37c0.463,3.142,1.001,6.259,1.615,9.35
		c1.428,1.358,3.354,2.198,5.482,2.198h113.89c4.396,0,7.959-3.562,7.959-7.959C189.311,331.51,185.749,327.947,181.353,327.947z"/>
	<path style="fill:#84C1BC;" d="M140.134,391.088H82.218c-4.396,0-7.959-3.562-7.959-7.959c0-4.396,3.562-7.959,7.959-7.959h57.915
		c4.396,0,7.959,3.562,7.959,7.959C148.092,387.525,144.529,391.088,140.134,391.088z"/>
</g>
<path id="SVGCleanerId_0" style="fill:#FFE060;" d="M466.279,490.05c0,7.727-6.34,13.991-14.159,13.991H59.877
	c-7.82,0-14.16-6.264-14.16-13.991v-5.596c0-7.727,6.34-13.991,14.16-13.991h392.244c7.818,0,14.159,6.264,14.159,13.991v5.596
	H466.279z"/>
<g>
	<path id="SVGCleanerId_0_1_" style="fill:#FFE060;" d="M466.279,490.05c0,7.727-6.34,13.991-14.159,13.991H59.877
		c-7.82,0-14.16-6.264-14.16-13.991v-5.596c0-7.727,6.34-13.991,14.16-13.991h392.244c7.818,0,14.159,6.264,14.159,13.991v5.596
		H466.279z"/>
</g>
<path style="opacity:0.1;enable-background:new    ;" d="M101.072,490.05v-5.596c0-7.727,6.34-13.991,14.16-13.991H59.877
	c-7.82,0-14.16,6.264-14.16,13.991v5.596c0,7.727,6.34,13.991,14.16,13.991h55.354C107.412,504.041,101.072,497.778,101.072,490.05z
	"/>
<g>
	<path style="fill:#EF645E;" d="M280.987,241.006h-8.685c-4.497,0-8.141-3.642-8.141-8.135s3.644-8.136,8.141-8.136h8.685
		c4.497,0,8.142,3.643,8.142,8.136S285.484,241.006,280.987,241.006z"/>
	<path style="fill:#EF645E;" d="M152.324,267.038h-8.684c-4.497,0-8.142-3.642-8.142-8.135c0-4.493,3.645-8.135,8.142-8.135h8.684
		c4.496,0,8.142,3.642,8.142,8.135C160.466,263.397,156.82,267.038,152.324,267.038z"/>
</g>
<g>
	<ellipse style="fill:#FFAB5F;" cx="186.515" cy="235.584" rx="9.77" ry="9.761"/>
	<ellipse style="fill:#FFAB5F;" cx="315.709" cy="259.449" rx="9.771" ry="9.761"/>
</g>
<g>
	<path style="fill:#78B591;" d="M241.099,253.215c1.801,1.801,1.802,4.719,0,6.521l-6.524,6.52c-1.802,1.801-4.723,1.8-6.525,0
		l-6.524-6.52c-1.801-1.8-1.803-4.719,0-6.521l6.524-6.519c1.802-1.801,4.723-1.8,6.525,0L241.099,253.215z"/>
	<path style="fill:#78B591;" d="M371.088,236.661c1.801,1.801,1.802,4.719,0,6.521l-6.524,6.52c-1.803,1.801-4.724,1.8-6.525,0
		l-6.525-6.52c-1.801-1.8-1.802-4.719,0-6.521l6.525-6.519c1.801-1.801,4.722-1.8,6.525,0L371.088,236.661z"/>
</g>
<path d="M452.12,462.503h-68.622c47.551-36.915,78.118-93.94,78.118-157.842c0-12.005-9.905-21.77-22.079-21.77h-2.39
	c-0.944-15.275-10.176-28.484-23.81-34.684c0.354-2.174,0.533-4.381,0.533-6.61c0-22.603-18.401-40.992-41.018-40.992
	c-2.451,0-4.868,0.213-7.241,0.638c-4.093-14.547-16.106-25.897-30.959-29.101c0.9-2.923,1.549-5.949,1.891-9.057
	c0.737-6.706-2.153-13.444-7.542-17.579c-8.834-6.79-19.821-10.531-30.934-10.531c-6.557,0-12.928,1.259-18.938,3.738
	c-10.215,4.216-18.494,11.67-23.798,20.945c-5.487-7.855-13.245-14.133-22.512-17.824c-5.991-2.383-12.317-3.592-18.8-3.592
	c-11.275,0-22.356,3.77-31.205,10.618c-5.405,4.185-8.206,10.962-7.312,17.681c0.259,1.956,0.654,3.872,1.14,5.758
	c-14.528,3.404-26.229,14.626-30.258,28.943c-2.373-0.423-4.79-0.638-7.24-0.638c-22.618,0-41.019,18.388-41.019,40.992
	c0,2.228,0.178,4.435,0.533,6.61c-13.635,6.2-22.867,19.409-23.81,34.684h-2.392c-12.173,0-22.077,9.766-22.077,21.77
	c0,63.903,30.568,120.927,78.118,157.842H59.877c-12.196,0-22.118,9.846-22.118,21.95v5.596c0,12.103,9.923,21.95,22.118,21.95
	h392.244c12.196,0,22.117-9.846,22.117-21.95v-5.596C474.238,472.351,464.316,462.503,452.12,462.503z M285.203,153.428
	c4.074-1.682,8.402-2.535,12.864-2.535c7.625,0,15.166,2.569,21.24,7.236c1.006,0.774,1.549,2.006,1.416,3.214
	c-1.323,12.021-9.077,22.35-20.236,26.954c-4.075,1.683-8.402,2.536-12.864,2.536c-5.008,0-9.972-1.128-14.513-3.21l22.248-9.186
	c4.063-1.678,5.995-6.332,4.319-10.394c-1.677-4.062-6.329-5.994-10.394-4.319l-22.639,9.349
	C269.715,164.279,276.388,157.066,285.203,153.428z M192.557,161.45c6.074-4.701,13.695-7.288,21.463-7.288
	c4.459,0,8.805,0.829,12.915,2.463c8.919,3.553,15.778,10.598,19.106,19.211l-22.93-9.128c-4.083-1.62-8.712,0.367-10.338,4.451
	c-1.625,4.084,0.368,8.712,4.451,10.338l22.562,8.98c-4.532,2.049-9.508,3.144-14.547,3.144c-4.459,0-8.805-0.829-12.915-2.463
	c-11.398-4.538-19.46-14.772-21.042-26.712C191.128,163.307,191.606,162.186,192.557,161.45z M458.321,490.05
	c0,3.327-2.781,6.033-6.2,6.033H59.877c-3.42,0-6.201-2.707-6.201-6.033v-5.596c0-3.327,2.781-6.033,6.201-6.033h195.06
	c4.396,0,7.959-3.563,7.959-7.959c0-4.396-3.562-7.959-7.959-7.959h-98.415c-54.1-32.703-90.227-91.221-90.227-157.842
	c0-3.227,2.763-5.853,6.16-5.853h256.762c4.396,0,7.959-3.562,7.959-7.959s-3.562-7.959-7.959-7.959H90.814
	c1.077-10.577,8.671-19.359,19.225-21.821c2.236-0.521,4.138-1.983,5.218-4.01c1.08-2.028,1.23-4.422,0.415-6.568
	c-1.082-2.844-1.63-5.835-1.63-8.892c0-13.826,11.261-25.075,25.102-25.075c3.617,0,7.116,0.759,10.397,2.254
	c2.437,1.108,5.272,0.92,7.538-0.506c2.268-1.427,3.665-3.898,3.719-6.576c0.257-12.685,10.15-23.154,22.547-24.427
	c5.513,8.255,13.492,14.857,23.094,18.68c5.991,2.383,12.317,3.592,18.8,3.592c11.28,0,22.362-3.773,31.202-10.62
	c0.631-0.488,1.223-1.014,1.783-1.569c8.556,6.074,18.92,9.401,29.399,9.401c6.558,0,12.93-1.26,18.939-3.741
	c8.269-3.413,15.276-8.944,20.46-15.85c13.149,0.481,23.909,11.298,24.177,24.535c0.054,2.679,1.452,5.15,3.719,6.576
	c2.269,1.427,5.102,1.616,7.537,0.506c3.281-1.495,6.78-2.254,10.398-2.254c13.842,0,25.101,11.249,25.101,25.075
	c0,3.057-0.549,6.048-1.63,8.892c-0.815,2.147-0.665,4.541,0.415,6.568c1.079,2.027,2.982,3.489,5.218,4.01
	c10.553,2.462,18.148,11.245,19.225,21.821H369.54c-4.396,0-7.959,3.562-7.959,7.959s3.562,7.959,7.959,7.959h69.998
	c3.398,0,6.162,2.626,6.162,5.853c0,66.622-36.127,125.139-90.227,157.842h-53.846c-4.396,0-7.959,3.562-7.959,7.959
	c0,4.395,3.562,7.959,7.959,7.959H452.12c3.419,0,6.2,2.707,6.2,6.033V490.05z"/>
<g>
</g>
<g>
</g>
<g>
</g>
<g>
</g>
<g>
</g>
<g>
</g>
<g>
</g>
<g>
</g>
<g>
</g>
<g>
</g>
<g>
</g>
<g>
</g>
<g>
</g>
<g>
</g>
<g>
</g>
</svg>
