<?xml version="1.0" encoding="iso-8859-1"?>
<!-- Generator: Adobe Illustrator 19.0.0, SVG Export Plug-In . SVG Version: 6.00 Build 0)  -->
<svg version="1.1" id="Layer_1" xmlns="http://www.w3.org/2000/svg" xmlns:xlink="http://www.w3.org/1999/xlink" x="0px" y="0px"
	 viewBox="0 0 512.001 512.001" style="enable-background:new 0 0 512.001 512.001;" xml:space="preserve">
<path style="fill:#E0A03D;" d="M489.368,261.056h-2.585v-68.823H25.218v68.823H22.63c-8.301,0-15.03,6.729-15.03,15.029
	c0,8.301,6.729,15.031,15.03,15.031c38.879,0,38.879,18.662,77.755,18.662c38.879,0,38.879-18.662,77.757-18.662
	c38.881,0,38.881,18.662,77.761,18.662c0.031,0,0.065-0.002,0.097-0.002c0.031,0,0.064,0.002,0.097,0.002
	c38.88,0,38.88-18.662,77.76-18.662c38.878,0,38.878,18.662,77.756,18.662c38.876,0,38.876-18.662,77.755-18.662
	c8.303,0,15.034-6.73,15.034-15.031C504.4,267.786,497.671,261.056,489.368,261.056z"/>
<path style="fill:#60A771;" d="M85.477,261.056H22.63c-8.301,0-15.03,6.729-15.03,15.029c0,8.301,6.729,15.031,15.03,15.031
	c38.879,0,38.879,18.662,77.755,18.662c38.879,0,38.879-18.662,77.757-18.662c38.881,0,38.881,18.662,77.761,18.662
	c0.031,0,0.065-0.002,0.097-0.002c0.031,0,0.064,0.002,0.097,0.002c38.88,0,38.88-18.662,77.76-18.662
	c38.878,0,38.878,18.662,77.756,18.662c38.876,0,38.876-18.662,77.755-18.662c8.303,0,15.034-6.73,15.034-15.031
	c0-8.3-6.73-15.029-15.034-15.029H256H107.967"/>
<path style="fill:#B7364A;" d="M487.229,291.15c-36.728,0.679-37.474,18.63-75.616,18.63c-38.878,0-38.878-18.662-77.756-18.662
	c-38.88,0-38.88,18.662-77.76,18.662c-0.033,0-0.066-0.002-0.097-0.002c-0.032,0-0.065,0.002-0.097,0.002
	c-38.88,0-38.88-18.662-77.761-18.662c-38.878,0-38.878,18.662-77.757,18.662c-38.14,0-38.888-17.95-75.613-18.63
	C14.964,293.214,7.6,301.91,7.6,312.332c0,11.959,9.693,21.652,21.651,21.652h453.497c11.958,0,21.651-9.694,21.651-21.652
	C504.4,301.91,497.036,293.214,487.229,291.15z"/>
<polygon style="fill:#F6E088;" points="25.218,333.985 25.218,358.573 53.78,358.573 162.045,396.428 270.308,358.573 
	486.783,358.573 486.783,333.985 "/>
<polygon style="fill:#E0A03D;" points="162.045,396.428 53.78,358.573 25.218,358.573 25.218,427.396 486.783,427.396 
	486.783,358.573 270.308,358.573 "/>
<circle style="fill:#60A771;" cx="256.004" cy="110.816" r="26.209"/>
<path style="fill:#491E17;" d="M512,276.086c0-0.612-0.031-1.216-0.079-1.817c-0.008-0.094-0.013-0.188-0.022-0.283
	c-0.054-0.572-0.129-1.134-0.223-1.691c-0.019-0.107-0.039-0.215-0.059-0.321c-0.103-0.559-0.223-1.113-0.366-1.657
	c-0.018-0.07-0.041-0.14-0.06-0.21c-0.147-0.533-0.311-1.06-0.495-1.577c-0.017-0.05-0.031-0.099-0.05-0.149
	c-0.193-0.529-0.408-1.047-0.639-1.557c-0.042-0.094-0.083-0.188-0.127-0.282c-0.232-0.495-0.479-0.98-0.744-1.455
	c-0.05-0.087-0.1-0.172-0.15-0.259c-0.279-0.485-0.57-0.961-0.885-1.423c-0.022-0.031-0.046-0.062-0.067-0.094
	c-0.307-0.448-0.632-0.883-0.971-1.307c-0.051-0.063-0.098-0.127-0.149-0.19c-0.344-0.422-0.703-0.828-1.077-1.224
	c-0.073-0.078-0.147-0.155-0.221-0.233c-0.377-0.389-0.766-0.766-1.168-1.127c-0.065-0.058-0.132-0.112-0.197-0.17
	c-0.414-0.362-0.839-0.713-1.28-1.046c-0.018-0.014-0.035-0.028-0.054-0.043c-0.449-0.336-0.915-0.653-1.389-0.956
	c-0.081-0.052-0.161-0.105-0.243-0.155c-0.461-0.288-0.934-0.557-1.417-0.812c-0.091-0.049-0.184-0.095-0.276-0.142
	c-0.496-0.252-1-0.49-1.516-0.706c-0.055-0.022-0.109-0.043-0.164-0.065c-0.509-0.208-1.026-0.398-1.552-0.568
	c-0.058-0.019-0.113-0.041-0.172-0.059c-0.538-0.171-1.087-0.318-1.643-0.448c-0.056-0.013-0.108-0.031-0.164-0.045v-69.384H263.601
	v-40.882c14.994-3.458,26.209-16.908,26.209-32.937c0-18.642-15.167-33.809-33.809-33.809c-18.643,0-33.809,15.167-33.809,33.809
	c0,16.029,11.215,29.478,26.209,32.937v40.882H17.618v69.383c-0.06,0.014-0.117,0.033-0.176,0.048
	c-0.549,0.13-1.092,0.275-1.625,0.444c-0.065,0.02-0.126,0.043-0.189,0.064c-0.52,0.169-1.031,0.358-1.532,0.562
	c-0.059,0.024-0.119,0.046-0.177,0.07c-0.514,0.215-1.016,0.452-1.51,0.703c-0.094,0.048-0.187,0.095-0.281,0.145
	c-0.481,0.253-0.953,0.523-1.413,0.809c-0.083,0.052-0.163,0.105-0.245,0.157c-0.474,0.304-0.939,0.619-1.388,0.956
	c-0.018,0.013-0.033,0.026-0.051,0.04c-0.443,0.333-0.868,0.686-1.286,1.05c-0.064,0.057-0.129,0.11-0.192,0.167
	c-0.405,0.363-0.795,0.741-1.172,1.131c-0.073,0.075-0.146,0.151-0.217,0.228c-0.374,0.397-0.737,0.806-1.08,1.228
	c-0.05,0.062-0.096,0.124-0.145,0.184c-0.34,0.427-0.668,0.864-0.978,1.315c-0.02,0.029-0.043,0.059-0.063,0.088
	c-0.315,0.463-0.608,0.941-0.888,1.427c-0.05,0.085-0.099,0.17-0.147,0.255c-0.267,0.476-0.515,0.963-0.747,1.458
	c-0.043,0.092-0.083,0.185-0.126,0.277c-0.23,0.512-0.446,1.032-0.639,1.561c-0.018,0.048-0.031,0.096-0.049,0.143
	c-0.185,0.52-0.35,1.048-0.496,1.584c-0.02,0.069-0.041,0.138-0.06,0.207c-0.144,0.545-0.263,1.098-0.367,1.659
	c-0.019,0.106-0.039,0.213-0.058,0.32c-0.094,0.557-0.169,1.12-0.223,1.691c-0.009,0.094-0.014,0.189-0.021,0.283
	C0.031,274.87,0,275.474,0,276.086c0,6.658,2.89,12.651,7.481,16.797C2.817,298.112,0,304.967,0,312.332
	c0,11.997,7.261,22.325,17.618,26.833v11.808v15.2v68.823h476.764v-68.823v-15.2v-11.808c10.357-4.507,17.618-14.837,17.618-26.833
	c0-7.365-2.817-14.22-7.482-19.45C509.11,288.737,512,282.743,512,276.086z M237.39,110.814c0-10.262,8.348-18.609,18.61-18.609
	c10.262,0,18.609,8.348,18.609,18.609c0,10.261-8.348,18.608-18.609,18.608C245.739,129.424,237.39,121.075,237.39,110.814z
	 M126.366,199.833l-24.732,24.733l10.748,10.748l35.481-35.482h65.261l-24.732,24.733l10.749,10.748l35.481-35.482h65.262
	l-24.733,24.733l10.748,10.748l35.481-35.482h65.262l-24.733,24.733l10.748,10.748l35.481-35.482h71.041v53.624H107.967v15.2
	h371.216h10.185c4.099,0,7.434,3.333,7.434,7.43c0,4.098-3.335,7.432-7.434,7.432c-21.169,0-32.324,5.355-42.167,10.079
	c-9.194,4.413-17.879,8.583-35.587,8.583c-17.71,0-26.395-4.169-35.59-8.583c-9.842-4.725-20.998-10.079-42.166-10.079
	c-21.17,0-32.326,5.354-42.168,10.079c-2.298,1.102-4.564,2.191-6.947,3.201c-7.149,3.033-15.35,5.379-28.619,5.382l-0.123-0.002
	l-0.197,0.002c-0.179,0-0.345-0.007-0.523-0.008c-12.919-0.074-20.992-2.388-28.032-5.378c-2.38-1.009-4.642-2.096-6.937-3.197
	c-9.843-4.725-21-10.079-42.169-10.079s-32.324,5.354-42.166,10.079c-9.195,4.413-17.881,8.583-35.591,8.583
	c-17.709,0-26.393-4.169-35.587-8.583c-9.843-4.724-20.999-10.079-42.168-10.079c-4.097,0-7.431-3.334-7.431-7.432
	c0-4.097,3.334-7.43,7.431-7.43H32.82h52.66v-15.2H32.818v-53.624h93.548V199.833z M479.183,419.796H32.818v-53.624H52.49
	l109.555,38.306l109.553-38.306h207.583v53.624H479.183z M269.018,350.973l-106.972,37.403L55.071,350.973H32.818v-9.389h446.365
	v9.389H269.018z M482.749,326.385H29.251c-7.749,0-14.052-6.305-14.052-14.053c0-6.342,4.318-11.924,10.373-13.561
	c15.737,0.437,23.952,4.373,32.638,8.538c9.517,4.562,20.263,9.712,40.079,10.052c0.689,0.012,1.385,0.018,2.096,0.018
	c2.646,0,5.135-0.084,7.486-0.239c2.35-0.155,4.561-0.383,6.649-0.671c1.567-0.216,3.063-0.466,4.499-0.745
	c10.049-1.952,17.074-5.323,23.534-8.424c6.896-3.31,13.504-6.482,23.849-7.862c3.448-0.46,7.312-0.72,11.739-0.72
	c17.712,0,26.397,4.169,35.593,8.583c9.842,4.725,20.999,10.079,42.168,10.079h0.194c21.17,0,32.326-5.354,42.168-10.079
	c9.196-4.413,17.882-8.583,35.592-8.583c17.71,0,26.395,4.169,35.59,8.583c9.842,4.725,20.998,10.079,42.166,10.079
	c0.745,0,1.474-0.008,2.196-0.022c19.75-0.357,30.477-5.495,39.978-10.049c8.686-4.164,16.902-8.101,32.64-8.538
	c6.057,1.636,10.373,7.219,10.373,13.561C496.8,320.08,490.497,326.385,482.749,326.385z"/>
<g>
</g>
<g>
</g>
<g>
</g>
<g>
</g>
<g>
</g>
<g>
</g>
<g>
</g>
<g>
</g>
<g>
</g>
<g>
</g>
<g>
</g>
<g>
</g>
<g>
</g>
<g>
</g>
<g>
</g>
</svg>
