<?xml version="1.0" encoding="iso-8859-1"?>
<!-- Generator: Adobe Illustrator 19.0.0, SVG Export Plug-In . SVG Version: 6.00 Build 0)  -->
<svg version="1.1" id="Layer_1" xmlns="http://www.w3.org/2000/svg" xmlns:xlink="http://www.w3.org/1999/xlink" x="0px" y="0px"
	 viewBox="0 0 512 512" style="enable-background:new 0 0 512 512;" xml:space="preserve">
<path style="fill:#51C0C2;" d="M492.936,413.957l-6.405,22.419c-2.473,8.639-11.841,15.709-20.829,15.709H46.298
	c-8.987,0-18.356-7.07-20.829-15.709l-6.405-22.419H492.936z"/>
<path style="fill:#98E1E2;" d="M283.234,264.17l-29.957,10.894v59.915h59.915v-59.915L283.234,264.17z M283.234,217.872h136.17
	c0,90.243-73.162,163.404-163.404,163.404c-44.315,0-84.513-17.648-113.947-46.298h-33.117C53.379,334.979,8.17,289.77,8.17,234.213
	v-16.34H283.234z M108.936,302.298h7.135c-9.499-15.709-16.428-33.16-20.208-51.745h-53.03
	C50.165,280.227,77.029,302.298,108.936,302.298z"/>
<polygon style="fill:#EF5352;" points="313.191,275.064 313.191,334.979 253.277,334.979 253.277,275.064 283.234,264.17 "/>
<g>
	<path style="fill:#700D00;" d="M108.936,310.468h7.135c2.949,0,5.668-1.588,7.117-4.157c1.449-2.568,1.401-5.717-0.125-8.24
		c-9.203-15.221-15.66-31.754-19.189-49.142c-0.772-3.807-4.121-6.545-8.007-6.545H42.833c-2.512,0-4.885,1.156-6.433,3.134
		c-1.549,1.977-2.101,4.559-1.498,6.997C43.337,286.636,73.781,310.468,108.936,310.468z M89.323,258.723
		c2.959,12.125,7.226,23.841,12.748,35.015c-21.111-2.406-39.242-15.791-47.826-35.015H89.323z"/>
	<path style="fill:#700D00;" d="M108.936,343.149h29.845c31.906,29.882,73.398,46.298,117.219,46.298
		c94.607,0,171.574-76.968,171.574-171.574c0-4.513-3.658-8.17-8.17-8.17h-128v-2.723c0-4.513-3.658-8.17-8.17-8.17
		c-4.512,0-8.17,3.657-8.17,8.17v2.723H8.17c-4.512,0-8.17,3.657-8.17,8.17v16.34C0,294.281,48.869,343.149,108.936,343.149z
		 M16.34,226.043h258.723v32.404l-24.579,8.938c-3.229,1.174-5.378,4.244-5.378,7.679v59.915c0,4.513,3.658,8.17,8.17,8.17h59.915
		c4.512,0,8.17-3.657,8.17-8.17v-59.915c0-3.435-2.149-6.505-5.378-7.679l-24.579-8.938v-32.404h119.617
		C406.755,307.854,338.854,373.106,256,373.106c-40.658,0-79.101-15.62-108.247-43.983c-1.525-1.484-3.57-2.315-5.697-2.315h-33.12
		c-51.057,0-92.596-41.538-92.596-92.596V226.043z M283.234,272.863l21.787,7.922v46.023h-43.574v-46.022L283.234,272.863z"/>
	<path style="fill:#700D00;" d="M503.83,405.787H8.17c-4.512,0-8.17,3.657-8.17,8.17s3.658,8.17,8.17,8.17h4.731l4.711,16.491
		c3.466,12.132,16.066,21.637,28.685,21.637h419.404c12.619,0,25.219-9.505,28.685-21.637l4.712-16.491h4.731
		c4.512,0,8.17-3.657,8.17-8.17S508.342,405.787,503.83,405.787z M478.675,434.129c-1.463,5.122-7.647,9.786-12.973,9.786H46.298
		c-5.327,0-11.51-4.664-12.973-9.786l-3.429-12.001h452.209L478.675,434.129z"/>
</g>
<g>
	<path style="fill:#E8D6BD;" d="M217.872,193.362c-4.512,0-8.17-3.657-8.17-8.17c0-12.443,3.386-18.932,6.374-24.658
		c2.525-4.839,4.52-8.663,4.52-17.098c0-8.436-1.995-12.26-4.52-17.101c-2.987-5.726-6.374-12.216-6.374-24.66
		c0-12.443,3.386-18.933,6.374-24.659c2.525-4.841,4.52-8.665,4.52-17.102c0-4.513,3.658-8.17,8.17-8.17
		c4.512,0,8.17,3.657,8.17,8.17c0,12.444-3.386,18.934-6.374,24.66c-2.525,4.841-4.52,8.665-4.52,17.101
		c0,8.437,1.995,12.261,4.52,17.102c2.987,5.726,6.374,12.216,6.374,24.659c0,12.443-3.386,18.932-6.374,24.658
		c-2.525,4.839-4.52,8.663-4.52,17.098C226.043,189.705,222.384,193.362,217.872,193.362z"/>
	<path style="fill:#E8D6BD;" d="M283.234,193.362c-4.512,0-8.17-3.657-8.17-8.17c0-12.443,3.386-18.932,6.374-24.658
		c2.525-4.839,4.52-8.663,4.52-17.098c0-8.436-1.995-12.26-4.52-17.101c-2.987-5.726-6.374-12.216-6.374-24.66
		c0-12.443,3.386-18.933,6.374-24.659c2.525-4.841,4.52-8.665,4.52-17.102c0-4.513,3.658-8.17,8.17-8.17
		c4.512,0,8.17,3.657,8.17,8.17c0,12.444-3.386,18.934-6.374,24.66c-2.525,4.841-4.52,8.665-4.52,17.101
		c0,8.437,1.995,12.261,4.52,17.102c2.987,5.726,6.374,12.216,6.374,24.659c0,12.443-3.386,18.932-6.374,24.658
		c-2.525,4.839-4.52,8.663-4.52,17.098C291.404,189.705,287.746,193.362,283.234,193.362z"/>
</g>
<g>
</g>
<g>
</g>
<g>
</g>
<g>
</g>
<g>
</g>
<g>
</g>
<g>
</g>
<g>
</g>
<g>
</g>
<g>
</g>
<g>
</g>
<g>
</g>
<g>
</g>
<g>
</g>
<g>
</g>
</svg>
