<svg width="38" height="38" viewBox="0 0 38 38" fill="none" xmlns="http://www.w3.org/2000/svg">
<g clip-path="url(#clip0_77_1444)">
<path d="M26.0464 1.43434C24.2463 -0.366542 21.3285 -0.369039 19.521 1.42186C17.7142 -0.369039 14.7973 -0.366542 12.9947 1.43434C11.1896 3.23772 11.1896 6.16791 12.9947 7.97212C13.0829 8.0595 17.368 12.3245 18.9451 13.8949C19.2638 14.212 19.7773 14.212 20.096 13.8949C21.6739 12.3245 25.959 8.0595 26.0447 7.97212C27.8523 6.16708 27.8523 3.23772 26.0464 1.43434Z" fill="#353962"/>
<path d="M36.6411 24.8469L31.0602 19.6057C29.7728 18.3965 28.0726 17.7233 26.3058 17.7233H15.4087C14.2527 17.7233 13.3165 18.6603 13.3165 19.8163C13.3165 20.9722 14.2527 21.9076 15.4087 21.9076H23.3081C24.0271 21.9076 24.6105 22.4901 24.6105 23.2091C24.6105 23.9282 24.0271 24.5115 23.3081 24.5115H9.8561C9.56316 24.5115 9.28021 24.4133 9.05052 24.2327L3.38476 19.7763C2.47847 19.0631 1.16107 19.2171 0.447857 20.125C-0.266188 21.0346 -0.10973 22.3478 0.798222 23.0627L9.51406 29.9208C9.89688 30.2204 10.3529 30.3686 10.8057 30.3686C10.8073 30.3686 10.8073 30.3686 10.8073 30.3686V30.3677H26.5155C26.855 30.3677 27.1804 30.4992 27.4243 30.7356L34.1544 37.2775C34.8069 37.9125 35.7773 38.0931 36.6161 37.7402C37.455 37.3873 38.0001 36.5635 38.0001 35.6522V28.1691C38.0001 26.9266 37.5116 25.7349 36.6411 24.8469Z" fill="#353962"/>
</g>
<defs>
<clipPath id="clip0_77_1444">
<rect width="38" height="38" fill="white"/>
</clipPath>
</defs>
</svg>
