<svg width="38" height="38" viewBox="0 0 38 38" fill="none" xmlns="http://www.w3.org/2000/svg">
<path d="M14.0625 0C13.4409 0 12.8448 0.24693 12.4052 0.686468C11.9657 1.12601 11.7188 1.72215 11.7188 2.34375V11.7188H2.34375C1.72215 11.7188 1.12601 11.9657 0.686468 12.4052C0.24693 12.8448 0 13.4409 0 14.0625V23.4375C0 24.0591 0.24693 24.6552 0.686468 25.0948C1.12601 25.5343 1.72215 25.7812 2.34375 25.7812H11.7188V35.1562C11.7188 35.7779 11.9657 36.374 12.4052 36.8135C12.8448 37.2531 13.4409 37.5 14.0625 37.5H23.4375C24.0591 37.5 24.6552 37.2531 25.0948 36.8135C25.5343 36.374 25.7812 35.7779 25.7812 35.1562V25.7812H35.1562C35.7779 25.7812 36.374 25.5343 36.8135 25.0948C37.2531 24.6552 37.5 24.0591 37.5 23.4375V14.0625C37.5 13.4409 37.2531 12.8448 36.8135 12.4052C36.374 11.9657 35.7779 11.7188 35.1562 11.7188H25.7812V2.34375C25.7812 1.72215 25.5343 1.12601 25.0948 0.686468C24.6552 0.24693 24.0591 0 23.4375 0H14.0625Z" fill="#353962"/>
</svg>
