<svg width="38" height="38" viewBox="0 0 38 38" fill="none" xmlns="http://www.w3.org/2000/svg">
<path d="M6.6903 4.45466C6.13564 5.99751 5.51355 7.54823 5.31879 9.18823C5.13592 10.7294 5.49434 11.8502 6.24897 13.1704C7.01161 14.5046 8.35418 16.4655 9.96355 17.3453V37.9998H13.5561V17.3239C15.1478 16.4337 16.4746 14.4935 17.231 13.1704C17.9857 11.8502 18.3439 10.7295 18.1611 9.18823C17.9664 7.54831 17.3443 5.99751 16.7897 4.45466C16.3531 3.24019 15.4827 0.222375 13.8756 0.0351569L14.8335 8.90115H13.636L12.6783 0H11.7402H10.8021L9.84377 8.90115H8.64633L9.60436 0.0351569C7.99725 0.222375 7.12688 3.24019 6.6903 4.45466Z" fill="#353962"/>
<path d="M24.2046 10.6376C24.2046 20.1219 28.1309 21.154 29.1358 21.2628V38H32.7284V0H29.1358C29.1359 0 24.2046 0 24.2046 10.6376Z" fill="#353962"/>
</svg>
