<svg width="63" height="63" viewBox="0 0 63 63" fill="none" xmlns="http://www.w3.org/2000/svg">
<rect width="63" height="63" rx="31.5" fill="#B6C5F4"/>
<rect width="63" height="63" rx="31.5" fill="#586EB3"/>
<path d="M50.4835 22.653C50.2497 22.3946 49.8757 22.2469 49.5016 22.2469L18.4076 22.0624L16.7244 16.3407C16.5841 15.8977 16.0698 15.6024 15.4619 15.5655L7.84038 15.5286C7.09225 15.5286 6.53116 15.9346 6.57792 16.5252C6.57792 17.1159 7.09225 17.5588 7.84038 17.5219L14.48 17.5588L22.9899 45.429C23.1302 45.8719 23.6445 46.1672 24.2524 46.2041L42.675 46.3518C42.8152 46.3149 42.862 46.3518 43.0023 46.3518C43.5634 46.2411 43.9374 45.835 43.9374 45.392C43.9374 44.8014 43.4231 44.3584 42.675 44.3954L25.2343 44.2846L23.9251 40.1502L45.0128 38.4153C45.5272 38.3784 45.948 38.0831 46.0883 37.677L50.7173 23.6497C50.7641 23.2436 50.6705 22.8745 50.4835 22.653ZM19.0155 24.0926L26.263 24.1665L26.1694 30.1096L20.7455 30.0727L19.0155 24.0926ZM26.1227 37.8247L23.2705 38.0831L21.4001 32.0292L26.1227 32.0661V37.8247ZM36.3626 36.9387L28.6944 37.6032L28.7411 32.103L36.4562 32.1399L36.3626 36.9387ZM28.7879 30.0727L28.8814 24.1295L36.4562 24.2034L36.4094 30.1096L28.7879 30.0727ZM43.8439 36.3481L38.8876 36.6434L38.9343 32.1399H45.1531L43.8439 36.3481ZM45.8545 30.1834L39.0278 30.1465L39.1214 24.2034L47.8651 24.2772L45.8545 30.1834Z" fill="#B6C5F4"/>
<path d="M26.6272 49.2384C26.6397 48.1375 25.5194 47.2371 24.1249 47.2272C22.7304 47.2173 21.5898 48.1018 21.5773 49.2027C21.5648 50.3036 22.6851 51.2041 24.0796 51.2139C25.4741 51.2238 26.6147 50.3393 26.6272 49.2384Z" fill="#B6C5F4"/>
<path d="M45.0845 49.3549C45.097 48.254 43.9767 47.3535 42.5822 47.3437C41.1877 47.3338 40.0471 48.2182 40.0346 49.3191C40.0221 50.42 41.1424 51.3205 42.5369 51.3304C43.9314 51.3403 45.0719 50.4558 45.0845 49.3549Z" fill="#B6C5F4"/>
</svg>
