<svg width="63" height="63" viewBox="0 0 63 63" fill="none" xmlns="http://www.w3.org/2000/svg">
<rect width="63" height="63" rx="31.5" fill="#586EB2"/>
<path d="M33.2968 8.42218C33.01 8.19843 32.6568 8.0769 32.2931 8.0769C31.9293 8.0769 31.5761 8.19843 31.2893 8.42218L8.0769 26.5235L10.0843 29.0624L12.9231 26.849V46.846C12.9248 47.7024 13.2658 48.5231 13.8713 49.1286C14.4768 49.7341 15.2975 50.0751 16.1538 50.0768H48.4615C49.3179 50.0752 50.1387 49.7343 50.7443 49.1288C51.3498 48.5233 51.6907 47.7024 51.6923 46.846V26.8637L54.531 29.0768L56.5384 26.5378L33.2968 8.42218ZM35.5384 46.846H29.0769V33.923H35.5384V46.846ZM38.7692 46.846V33.923C38.7682 33.0664 38.4275 32.2452 37.8219 31.6396C37.2162 31.0339 36.395 30.6932 35.5384 30.6922H29.0769C28.2203 30.6931 27.3991 31.0337 26.7934 31.6394C26.1877 32.2451 25.847 33.0664 25.8461 33.923V46.846H16.1538V24.33L32.3077 11.7462L48.4615 24.347V46.846H38.7692Z" fill="#B6C5F4"/>
</svg>
