<?xml version="1.0" encoding="iso-8859-1"?>
<!-- Generator: Adobe Illustrator 19.0.0, SVG Export Plug-In . SVG Version: 6.00 Build 0)  -->
<svg version="1.1" id="Layer_1" xmlns="http://www.w3.org/2000/svg" xmlns:xlink="http://www.w3.org/1999/xlink" x="0px" y="0px"
	 viewBox="0 0 512 512" style="enable-background:new 0 0 512 512;" xml:space="preserve">
<g>
	<g>
		<g>
			<path d="M42.667,247.447c-4.71,0-8.533,3.823-8.533,8.533v8.533c0,4.71,3.823,8.533,8.533,8.533
				c9.412,0,17.067,7.654,17.067,17.067c0,4.71,3.823,8.533,8.533,8.533s8.533-3.823,8.533-8.533
				c0-15.872-10.897-29.252-25.6-33.058v-1.075C51.2,251.27,47.377,247.447,42.667,247.447z"/>
			<path d="M42.667,426.647c61.167,0,110.933-49.766,110.933-110.933S103.834,204.78,42.667,204.78c-4.71,0-8.533,3.823-8.533,8.533
				c0,4.71,3.823,8.533,8.533,8.533c51.755,0,93.867,42.112,93.867,93.867c0,51.755-42.112,93.867-93.867,93.867
				c-4.71,0-8.533,3.823-8.533,8.533S37.956,426.647,42.667,426.647z"/>
			<path d="M469.333,119.447H133.069l269.764-51.379c0.077-0.026,9.788-1.911,16.393,3.49c4.941,4.036,7.441,11.537,7.441,22.289
				c0,4.71,3.823,8.533,8.533,8.533s8.533-3.823,8.533-8.533c0-16.239-4.676-28.237-13.892-35.661
				c-13.039-10.487-29.892-6.963-30.37-6.852L41.071,119.6c-4.326,0.819-7.313,4.804-6.903,9.182
				c0.418,4.378,4.096,7.731,8.499,7.731h426.667c14.114,0,25.6,11.486,25.6,25.6v307.2c0,14.114-11.486,25.6-25.6,25.6H42.667
				c-14.114,0-25.6-11.486-25.6-25.6V127.98c0-15.522,14.43-26.522,28.049-30.225l256.742-77.056
				c5.163-2.082,21.99-6.622,31.275-0.341c5.444,3.678,8.201,11.179,8.201,22.289c0,4.71,3.823,8.533,8.533,8.533
				s8.533-3.823,8.533-8.533c0-17.126-5.291-29.389-15.718-36.429c-18.355-12.399-44.305-2.517-46.464-1.613L40.431,81.345
				C20.301,86.815,0,103.361,0,127.98v341.333c0,23.526,19.14,42.667,42.667,42.667h426.667c23.526,0,42.667-19.14,42.667-42.667
				v-307.2C512,138.587,492.86,119.447,469.333,119.447z"/>
			<path d="M42.667,358.38c-4.71,0-8.533,3.823-8.533,8.533v8.533c0,4.71,3.823,8.533,8.533,8.533c4.71,0,8.533-3.823,8.533-8.533
				v-1.075c14.703-3.806,25.6-17.186,25.6-33.058c0-18.825-15.309-34.133-34.133-34.133c-4.71,0-8.533,3.823-8.533,8.533
				s3.823,8.533,8.533,8.533c9.412,0,17.067,7.654,17.067,17.067C59.733,350.726,52.079,358.38,42.667,358.38z"/>
			<path d="M230.4,358.38c4.71,0,8.533-3.823,8.533-8.533V281.58c0-3.448-2.082-6.562-5.265-7.885
				c-3.209-1.323-6.861-0.597-9.301,1.852l-25.6,25.6c-3.337,3.337-3.337,8.73,0,12.066c3.336,3.337,8.73,3.337,12.066,0
				l11.034-11.034v47.667C221.867,354.557,225.69,358.38,230.4,358.38z"/>
			<path d="M375.467,332.78v-34.133c0-14.114-11.486-25.6-25.6-25.6s-25.6,11.486-25.6,25.6v34.133c0,14.114,11.486,25.6,25.6,25.6
				S375.467,346.894,375.467,332.78z M341.333,332.78v-34.133c0-4.702,3.831-8.533,8.533-8.533s8.533,3.831,8.533,8.533v34.133
				c0,4.702-3.831,8.533-8.533,8.533S341.333,337.482,341.333,332.78z"/>
			<path d="M42.667,477.847h375.467c4.71,0,8.533-3.823,8.533-8.533c0-23.526,19.14-42.667,42.667-42.667
				c4.71,0,8.533-3.823,8.533-8.533v-204.8c0-4.71-3.823-8.533-8.533-8.533c-23.526,0-42.667-19.14-42.667-42.667
				c0-4.71-3.823-8.533-8.533-8.533H42.667c-4.71,0-8.533,3.823-8.533,8.533c0,4.71,3.823,8.533,8.533,8.533h367.539
				c3.755,26.121,24.474,46.839,50.594,50.594v188.945c-26.121,3.755-46.839,24.474-50.594,50.594H42.667
				c-4.71,0-8.533,3.823-8.533,8.533S37.956,477.847,42.667,477.847z"/>
			<path d="M307.2,332.78v-34.133c0-14.114-11.486-25.6-25.6-25.6s-25.6,11.486-25.6,25.6v34.133c0,14.114,11.486,25.6,25.6,25.6
				S307.2,346.894,307.2,332.78z M273.067,332.78v-34.133c0-4.702,3.831-8.533,8.533-8.533c4.702,0,8.533,3.831,8.533,8.533v34.133
				c0,4.702-3.831,8.533-8.533,8.533C276.898,341.313,273.067,337.482,273.067,332.78z"/>
		</g>
	</g>
</g>
<g>
</g>
<g>
</g>
<g>
</g>
<g>
</g>
<g>
</g>
<g>
</g>
<g>
</g>
<g>
</g>
<g>
</g>
<g>
</g>
<g>
</g>
<g>
</g>
<g>
</g>
<g>
</g>
<g>
</g>
</svg>
