<svg width="271" height="390" viewBox="0 0 271 390" fill="none" xmlns="http://www.w3.org/2000/svg">
<path d="M13.4329 39C15.4329 24.2 24.5996 6.83333 28.9329 0C37.3329 9.6 42.7662 27 44.4329 34.5C70.3346 24.5 103.559 30.3333 116.933 34.5C117.733 20.1 126.933 5.5 131.433 0C139.433 6.8 145.766 25.8333 147.933 34.5C164.333 80.5 160.433 108 160.433 124C161.433 150 169.433 164.5 179.933 173.5C313.133 261.1 270.766 347.667 232.933 380C153.333 396.8 63.7661 387 28.9328 380C-10.6087 348.608 -2.90618 290.947 12.637 247.923C-12.1462 134.854 7.82513 66.2142 13.4329 39Z" fill="#40446E"/>
<path d="M35.4329 205C26.5995 218.333 8.03286 250.5 4.43286 272.5" stroke="#303249" stroke-width="3" stroke-linecap="round"/>
</svg>
