<svg width="293" height="400" viewBox="0 0 293 400" fill="none" xmlns="http://www.w3.org/2000/svg">
<path d="M24 36C24 23.5 30.6667 9.33333 35 2.5C43.4 12.1 50.3333 23 52 30.5C77.9017 20.5 111.126 26.3333 124.5 30.5C125.3 16.1 135 5.5 139.5 0C147.5 6.8 153.333 21.8333 155.5 30.5C155.5 80 161.5 110.5 164.5 128C177.5 157 191.433 171.5 201.933 180.5C335.133 268.1 292.766 354.667 254.933 387C175.333 403.8 70.5 401.5 63.0001 394C55.5001 386.5 50.9329 361.5 56 334.5C57.2199 328 32.5 263 32.5 263C13.5 184.5 24 155 24 152C24 149 9.99998 147.5 1.99999 128C-6 108.5 19 48 24 36Z" fill="#40446E"/>
<path d="M143.5 187C121.5 254 28 315 60.5 389.5" stroke="#303249" stroke-width="3" stroke-linecap="round"/>
<path d="M58 156.5C68.3333 160.667 93.9 166.5 113.5 156.5" stroke="#303249" stroke-width="3" stroke-linecap="round"/>
<circle cx="54.5" cy="92.5" r="24.5" fill="#FFD977"/>
<circle cx="54" cy="92" r="20" fill="black"/>
<circle cx="116.5" cy="92.5" r="24.5" fill="#FFD977"/>
<circle cx="116" cy="92" r="20" fill="black"/>
<rect x="30" y="57" width="114" height="33" fill="#40446E"/>
<path d="M85.3066 113.333C85.6938 113.705 86.3062 113.705 86.6934 113.333L92.0061 108.221C92.6548 107.596 92.213 106.5 91.3128 106.5H80.6872C79.787 106.5 79.3452 107.596 79.9938 108.221L85.3066 113.333Z" fill="#FFB8B8"/>
<path d="M86 111V117.5M86 117.5C88.75 117.655 94.8 119.171 97 124M86 117.5C83.8333 117.667 79.4 118.2 79 119" stroke="#FFB8B8" stroke-width="2" stroke-linecap="round"/>
</svg>
