<svg width="301" height="208" viewBox="0 0 301 208" fill="none" xmlns="http://www.w3.org/2000/svg">
<path d="M104.074 207.309C161.348 207.309 207.778 160.91 207.778 103.673C207.778 46.436 161.348 0.036377 104.074 0.036377C46.7998 0.036377 0.370117 46.436 0.370117 103.673C0.370117 160.91 46.7998 207.309 104.074 207.309Z" fill="#535F83"/>
<path d="M55.3332 31.4693L21.3598 54.8601C17.9998 57.1712 13.3954 54.9015 13.188 50.8286L10.9998 7.60189C10.7924 3.52898 15.1376 0.803343 18.7258 2.76207L54.8873 22.5981C58.2887 24.4739 58.5376 29.2723 55.3332 31.4693Z" fill="#535F83"/>
<path d="M153.115 29.8733L185.627 55.2539C188.841 57.7619 193.57 55.772 194.027 51.7199L198.807 8.70042C199.253 4.64823 195.084 1.6635 191.392 3.41496L154.101 21.0539C150.585 22.712 150.056 27.4897 153.115 29.8733Z" fill="#535F83"/>
<path d="M49.1111 117.145C70.3025 117.145 87.4815 99.9776 87.4815 78.8C87.4815 57.6224 70.3025 40.4546 49.1111 40.4546C27.9197 40.4546 10.7407 57.6224 10.7407 78.8C10.7407 99.9776 27.9197 117.145 49.1111 117.145Z" fill="#ACD7FF"/>
<path d="M141.407 115.073C162.599 115.073 179.778 97.9049 179.778 76.7273C179.778 55.5497 162.599 38.3818 141.407 38.3818C120.216 38.3818 103.037 55.5497 103.037 76.7273C103.037 97.9049 120.216 115.073 141.407 115.073Z" fill="#ACD7FF"/>
<path d="M125.106 204.655C173.229 204.655 221.339 204.655 269.461 204.655C276.309 204.655 283.157 204.655 290.005 204.655C303.469 204.655 303.492 186 290.005 186C241.883 186 193.773 186 145.65 186C138.802 186 131.954 186 125.106 186C111.643 186 111.62 204.655 125.106 204.655Z" fill="#535F83"/>
<g clip-path="url(#clip0_912_2)">
<path d="M50.2963 113.618C70.3422 113.618 86.5926 97.3784 86.5926 77.3455C86.5926 57.3126 70.3422 41.0728 50.2963 41.0728C30.2504 41.0728 14 57.3126 14 77.3455C14 97.3784 30.2504 113.618 50.2963 113.618Z" fill="black"/>
<path d="M142.593 111.545C162.639 111.545 178.889 95.3056 178.889 75.2727C178.889 55.2399 162.639 39 142.593 39C122.547 39 106.296 55.2399 106.296 75.2727C106.296 95.3056 122.547 111.545 142.593 111.545Z" fill="black"/>
</g>
<g clip-path="url(#clip1_912_2)">
<path d="M160.111 77.0182C168.129 77.0182 174.629 70.5222 174.629 62.5091C174.629 54.4959 168.129 48 160.111 48C152.092 48 145.592 54.4959 145.592 62.5091C145.592 70.5222 152.092 77.0182 160.111 77.0182Z" fill="white"/>
<path d="M118.629 103.964C122.639 103.964 125.889 100.716 125.889 96.7091C125.889 92.7026 122.639 89.4546 118.629 89.4546C114.62 89.4546 111.37 92.7026 111.37 96.7091C111.37 100.716 114.62 103.964 118.629 103.964Z" fill="white"/>
<path d="M65.7407 78.0546C73.759 78.0546 80.2592 71.5586 80.2592 63.5455C80.2592 55.5323 73.759 49.0364 65.7407 49.0364C57.7223 49.0364 51.2222 55.5323 51.2222 63.5455C51.2222 71.5586 57.7223 78.0546 65.7407 78.0546Z" fill="white"/>
<path d="M24.2593 105C28.2684 105 31.5185 101.752 31.5185 97.7455C31.5185 93.7389 28.2684 90.491 24.2593 90.491C20.2501 90.491 17 93.7389 17 97.7455C17 101.752 20.2501 105 24.2593 105Z" fill="white"/>
</g>
<g clip-path="url(#clip2_912_2)">
<path d="M96.4305 125.188L91.1312 119.778C88.6527 117.249 90.4468 113 93.9831 113H104.582C108.118 113 109.902 117.249 107.433 119.778L102.134 125.188C100.568 126.784 97.986 126.784 96.4305 125.188Z" fill="#FFC9E3"/>
<path d="M97.8511 122.327C97.8511 125.26 97.8511 128.203 97.8511 131.136C97.8511 133.137 100.962 133.137 100.962 131.136C100.962 128.203 100.962 125.26 100.962 122.327C100.962 120.327 97.8511 120.327 97.8511 122.327Z" fill="#FFC9E3"/>
<path d="M98.5149 130.639C95.4348 132.08 92.3652 133.53 89.2852 134.971C87.4808 135.831 89.0571 138.505 90.8615 137.666C93.9415 136.225 97.0111 134.774 100.091 133.334C101.896 132.473 100.319 129.789 98.5149 130.639Z" fill="#FFC9E3"/>
<path d="M98.6185 133.323C101.699 134.764 104.768 136.215 107.848 137.655C109.653 138.505 111.229 135.821 109.414 134.971C106.334 133.53 103.264 132.08 100.184 130.639C98.3904 129.789 96.8141 132.473 98.6185 133.323Z" fill="#FFC9E3"/>
</g>
<defs>
<clipPath id="clip0_912_2">
<rect width="164.889" height="74.6182" fill="white" transform="translate(14 39)"/>
</clipPath>
<clipPath id="clip1_912_2">
<rect width="157.63" height="57" fill="white" transform="translate(17 48)"/>
</clipPath>
<clipPath id="clip2_912_2">
<rect width="21.7778" height="24.8727" fill="white" transform="translate(88.5181 113)"/>
</clipPath>
</defs>
</svg>
